<svg clip-rule="evenodd" fill-rule="evenodd" stroke-linecap="round" stroke-linejoin="round" stroke-miterlimit="1.5" viewBox="0 0 11494 6466" xmlns="http://www.w3.org/2000/svg"><path d="m0 0h11493.8v6465.23h-11493.8z" fill="#ebebeb"/><path d="m0 617.187h11493.8v5848.05h-11493.8z" fill="#fff"/><circle cx="894.239" cy="5574.84" fill="#fff" r="450" stroke="#000" stroke-width="28.12"/><path d="m894.238 5459.24c41.447-72.896 124.342-72.896 165.79-36.448s41.448 109.343 0 182.238c-29.014 54.672-103.619 109.343-165.79 145.791-62.171-36.448-136.776-91.119-165.789-145.791-41.448-72.895-41.448-145.79 0-182.238 41.447-36.448 124.342-36.448 165.789 36.448z" fill="#dc0334" stroke="#dc0334" stroke-width="28.12"/><path d="m1776.56 1098.21h2492.15v333.508h-2492.15z" fill="#5c5c5c"/><g fill="#d1d1d1"><path d="m1776.56 1673.77h3964.2v254.648h-3964.2z"/><path d="m1776.56 2170.47h2932.99v254.648h-2932.99z"/><path d="m1776.56 2667.18h5315.06v254.648h-5315.06z"/><path d="m1776.56 3163.88h1959.32v254.648h-1959.32z"/><path d="m1776.56 3660.58h2883.72v254.648h-2883.72z"/><path d="m1776.56 4157.28h2907.8v254.648h-2907.8z"/></g><circle cx="314.884" cy="292.467" fill="#ed6a5e" r="89.795"/><circle cx="675.512" cy="292.467" fill="#f6bf50" r="89.795"/><circle cx="1036.14" cy="292.467" fill="#62c655" r="89.795"/></svg>