<svg clip-rule="evenodd" fill-rule="evenodd" stroke-linecap="square" stroke-linejoin="round" stroke-miterlimit="1.5" viewBox="0 0 1912 475" xmlns="http://www.w3.org/2000/svg" xmlns:xlink="http://www.w3.org/1999/xlink"><clipPath id="a"><path clip-rule="evenodd" d="m31.25 50.408h416.083v374.184h-416.083z"/></clipPath><g fill-rule="nonzero"><path d="m.21-.118h.311v.118h-.458v-.711h.147z" transform="matrix(281.526875 0 0 281.526875 608.48 315.923)"/><path d="m.203 0h-.141v-.528h.141zm-.15-.665c0-.021.007-.039.021-.052.015-.014.034-.021.058-.021s.044.007.058.021c.014.013.021.031.021.052s-.007.039-.021.053c-.015.013-.034.02-.058.02-.023 0-.043-.007-.057-.02-.015-.014-.022-.032-.022-.053z" transform="matrix(281.526875 0 0 281.526875 760.93 315.923)"/><path d="m.246-.212-.051.051v.161h-.141v-.75h.141v.416l.028-.036.135-.158h.169l-.191.22.208.308h-.162z" transform="matrix(281.526875 0 0 281.526875 835.57375 315.923)"/><path d="m.297.01c-.077 0-.14-.024-.189-.072-.049-.047-.073-.11-.073-.189v-.014c0-.053.01-.101.031-.142.02-.042.049-.075.087-.097.038-.023.081-.034.129-.034.072 0 .129.023.17.068.042.046.063.11.063.194v.058h-.337c.005.034.019.062.041.083.023.021.052.031.088.031.054 0 .096-.02.127-.059l.069.078c-.021.029-.049.053-.086.07-.036.016-.076.025-.12.025zm-.016-.434c-.028 0-.05.01-.068.028-.017.019-.028.046-.033.082h.196v-.012c-.001-.031-.009-.055-.025-.072-.017-.017-.04-.026-.07-.026z" transform="matrix(281.526875 0 0 281.526875 983.205 315.923)"/><path d="m.263-.331-.087.091v.24h-.093v-.711h.093v.352l.316-.352h.113l-.279.314.301.397h-.112z" transform="matrix(281.526875 0 0 281.526875 1135.38 315.923)"/><path d="m.154-.528.003.066c.04-.051.093-.076.158-.076.112 0 .168.063.169.189v.349h-.09v-.35c-.001-.038-.009-.066-.027-.084-.017-.018-.043-.027-.079-.027-.03 0-.055.007-.078.023-.022.016-.039.036-.051.062v.376h-.091v-.528z" transform="matrix(281.526875 0 0 281.526875 1308.72375 315.923)"/><path d="m.044-.269c0-.052.011-.098.031-.14.02-.041.049-.073.085-.095.036-.023.078-.034.124-.034.072 0 .13.025.175.075.044.049.066.116.066.198v.007c0 .051-.009.097-.029.138s-.048.073-.085.096c-.036.022-.078.034-.126.034-.071 0-.129-.025-.174-.075-.044-.05-.067-.116-.067-.198zm.091.011c0 .058.014.105.041.141.027.035.064.053.109.053.046 0 .083-.018.11-.054s.04-.086.04-.151c0-.058-.014-.105-.041-.141-.028-.036-.064-.054-.11-.054-.044 0-.08.018-.108.053-.027.036-.041.087-.041.153z" transform="matrix(281.526875 0 0 281.526875 1464.055 315.923)"/><path d="m.515-.258c0 .08-.019.145-.056.194-.036.049-.086.074-.149.074-.064 0-.115-.021-.151-.061v.254h-.091v-.731h.083l.004.058c.037-.045.088-.068.154-.068.063 0 .113.024.15.072s.056.114.056.199zm-.091-.011c0-.059-.012-.106-.038-.141-.025-.034-.06-.051-.104-.051-.055 0-.096.024-.123.072v.253c.027.048.068.072.124.072.043 0 .077-.017.103-.051.026-.035.038-.086.038-.154z" transform="matrix(281.526875 0 0 281.526875 1624.6175 315.923)"/><path d="m.113 0v-.458h-.084v-.07h.084v-.055c0-.056.015-.1.045-.131s.073-.046.129-.046c.02 0 .041.003.062.008l-.005.073c-.016-.003-.032-.004-.049-.004-.029 0-.052.008-.068.026-.016.017-.024.041-.024.073v.056h.113v.07h-.113v.458h-.09z" transform="matrix(281.526875 0 0 281.526875 1782.56125 315.923)"/></g><g clip-path="url(#a)"><path d="m96.03 219.315c78.648-45.407 206.352-45.407 285 0 78.648 45.408 78.648 119.138 0 164.545-78.648 45.408-206.352 45.408-285 0-78.648-45.407-78.648-119.137 0-164.545z" fill="#fff" stroke="#000" stroke-width="13.19"/><path d="m37.044 176.959h402.972v124.629h-402.972z" fill="#fff"/><g stroke="#000" stroke-width="13.19"><path d="m37.044 176.959v124.629" fill="none" stroke-linecap="butt"/><path d="m440.016 176.959v124.629" fill="none" stroke-linecap="round"/><path d="m96.03 91.14c78.648-45.408 206.352-45.408 285 0 78.648 45.407 78.648 119.137 0 164.545-78.648 45.407-206.352 45.407-285 0-78.648-45.408-78.648-119.138 0-164.545z" fill="#fff" stroke-linecap="round"/></g><path d="m190.506 145.685c-47.503-7.543-81.941 12.34-84.018 31.024-2.078 18.684 28.206 36.168 75.71 43.711 34.766 6.154 88.473 1.373 129.444-4.797 10.686-23.654 18.968-54.662 8.308-74.734-13.065-27.426-43.349-44.911-75.71-43.711-32.361 1.199-66.799 21.082-53.734 48.507z" fill="#dc0334"/><path d="m190.506 145.685c-47.503-7.543-81.941 12.34-84.018 31.024-2.078 18.684 28.206 36.168 75.71 43.711 34.766 6.154 88.473 1.373 129.444-4.797 10.686-23.654 18.968-54.662 8.308-74.734-13.065-27.426-43.349-44.911-75.71-43.711-32.361 1.199-66.799 21.082-53.734 48.507zm111.126 56.932c4.423-11.017 7.987-23.179 8.801-34.582.534-7.495-.037-14.623-3.123-20.434l-.281-.557c-10.715-22.494-35.717-36.548-62.259-35.564-13.112.486-26.728 4.498-35.66 11.425-5.458 4.234-8.918 9.835-5.683 16.625 2.285 4.798 1.724 10.467-1.457 14.724-3.182 4.256-8.46 6.4-13.708 5.566-24.38-3.871-44.803.237-57.571 7.968-5.336 3.231-9.533 6.495-9.979 10.503-.2 1.802 1.173 3.269 2.714 4.927 2.353 2.529 5.578 4.877 9.48 7.13 12.083 6.976 29.875 12.498 51.786 15.979 31.341 5.548 78.634 1.679 116.94-3.71z" fill="#dc0334"/></g></svg>