<?xml version="1.0" encoding="UTF-8" standalone="no"?>
<!DOCTYPE svg PUBLIC "-//W3C//DTD SVG 1.1//EN" "http://www.w3.org/Graphics/SVG/1.1/DTD/svg11.dtd">
<svg width="100%" height="100%" viewBox="0 0 580 152" version="1.1" xmlns="http://www.w3.org/2000/svg" xmlns:xlink="http://www.w3.org/1999/xlink" xml:space="preserve" xmlns:serif="http://www.serif.com/" style="fill-rule:evenodd;clip-rule:evenodd;stroke-linecap:square;stroke-linejoin:round;stroke-miterlimit:1.5;">
    <g id="Header" transform="matrix(2,0,0,2,-517.287,-83.9193)">
        <g transform="matrix(1,0,0,1,-7,1.24177)">
            <text x="363px" y="91.266px" style="font-family:'Roboto-Bold', 'Roboto';font-weight:700;font-size:45.044px;">Lik<tspan x="422.956px " y="91.266px ">e</tspan></text>
            <text x="447.304px" y="91.266px" style="font-family:'Roboto-Regular', 'Roboto';font-size:45.044px;">K<tspan x="475.039px " y="91.266px ">n</tspan>ob</text>
        </g>
        <g transform="matrix(0.0506667,0,0,0.0506667,296.808,79.9596)">
            <g transform="matrix(1,0,0,1,-750,-750)">
                <g transform="matrix(1.41421,0,0,1.41421,-310.66,-108.278)">
                    <g transform="matrix(1,0,0,1,-47.1753,-26.4554)">
                        <g transform="matrix(0.882467,-0.509493,1.1422,0.659449,-527.244,768.334)">
                            <ellipse cx="742.437" cy="585.925" rx="360.578" ry="278.584" style="fill:white;stroke:black;stroke-width:20.52px;"/>
                        </g>
                        <g transform="matrix(1.0725,0,0,0.430462,-17.3849,290.25)">
                            <rect x="340" y="483" width="839" height="646.497" style="fill:white;"/>
                        </g>
                        <g transform="matrix(1,0,0,1,47.1753,26.4554)">
                            <path d="M300.088,471.708L300.088,750" style="fill:none;stroke:black;stroke-width:29.46px;stroke-linecap:butt;"/>
                        </g>
                        <g transform="matrix(1,0,0,1,946.999,26.4554)">
                            <path d="M300.088,471.708L300.088,750" style="fill:none;stroke:black;stroke-width:29.46px;stroke-linecap:round;"/>
                        </g>
                    </g>
                    <g transform="matrix(0.882467,-0.509493,1.1422,0.659449,-574.42,455.666)">
                        <ellipse cx="742.437" cy="585.925" rx="360.578" ry="278.584" style="fill:white;stroke:black;stroke-width:20.52px;stroke-linecap:round;"/>
                    </g>
                    <g transform="matrix(-0.194856,0.1125,0.194856,0.1125,750,463.788)">
                        <g transform="matrix(1,0,0,1,-1000,-1000)">
                            <g transform="matrix(1.06884,0,0,1.22021,-3.35556,-318.822)">
                                <path d="M938.734,629.799C1123.35,345.388 1492.58,345.388 1677.2,487.594C1861.82,629.799 1861.82,914.21 1677.2,1198.62C1547.96,1411.93 1215.66,1625.24 938.734,1767.44C661.81,1625.24 329.504,1411.93 200.272,1198.62C15.657,914.21 15.657,629.799 200.272,487.594C384.888,345.388 754.119,345.388 938.734,629.799Z" style="fill:rgb(220,3,52);"/>
                                <path d="M938.734,629.799C1123.35,345.388 1492.58,345.388 1677.2,487.594C1861.82,629.799 1861.82,914.21 1677.2,1198.62C1547.96,1411.93 1215.66,1625.24 938.734,1767.44C661.81,1625.24 329.504,1411.93 200.272,1198.62C15.657,914.21 15.657,629.799 200.272,487.594C384.888,345.388 754.119,345.388 938.734,629.799ZM871.625,1614.65C745.626,1545.82 613.591,1463.64 503.356,1374.72C430.891,1316.27 367.769,1255.61 330.36,1193.86L326.688,1188.01C175.273,954.745 178.813,723.038 330.228,606.406C405.031,548.787 515.281,517.478 627.484,531.882C696.053,540.685 766.605,569.988 812.318,640.411C844.613,690.164 900.258,733.637 956.837,753.318C1013.42,772.999 1061.61,765.646 1082.01,734.222C1176.76,588.257 1324.38,525.769 1464.61,528.688C1523.22,529.908 1576.03,536.746 1615.63,567.252C1633.44,580.972 1639.7,599.354 1646.83,620.07C1657.7,651.691 1662.22,685.928 1662.22,722.575C1662.22,836.052 1618.11,964.51 1532.97,1095.71C1416.47,1288 1127.02,1478.62 871.625,1614.65Z" style="fill:rgb(220,3,52);"/>
                            </g>
                        </g>
                    </g>
                </g>
            </g>
        </g>
    </g>
</svg>
