<svg clip-rule="evenodd" fill-rule="evenodd" stroke-linecap="square" stroke-linejoin="round" stroke-miterlimit="1.5"
     viewBox="0 0 1813 475" xmlns="http://www.w3.org/2000/svg">
    <g fill-rule="nonzero">
        <path d="m.21-.118h.311v.118h-.458v-.711h.147z" transform="matrix(281.526875 0 0 281.526875 608.48 315.923)"/>
        <path d="m.203 0h-.141v-.528h.141zm-.15-.665c0-.021.007-.039.021-.052.015-.014.034-.021.058-.021s.044.007.058.021c.014.013.021.031.021.052s-.007.039-.021.053c-.015.013-.034.02-.058.02-.023 0-.043-.007-.057-.02-.015-.014-.022-.032-.022-.053z"
              transform="matrix(281.526875 0 0 281.526875 760.93 315.923)"/>
        <path d="m.246-.212-.051.051v.161h-.141v-.75h.141v.416l.028-.036.135-.158h.169l-.191.22.208.308h-.162z"
              transform="matrix(281.526875 0 0 281.526875 835.57375 315.923)"/>
        <path d="m.297.01c-.077 0-.14-.024-.189-.072-.049-.047-.073-.11-.073-.189v-.014c0-.053.01-.101.031-.142.02-.042.049-.075.087-.097.038-.023.081-.034.129-.034.072 0 .129.023.17.068.042.046.063.11.063.194v.058h-.337c.005.034.019.062.041.083.023.021.052.031.088.031.054 0 .096-.02.127-.059l.069.078c-.021.029-.049.053-.086.07-.036.016-.076.025-.12.025zm-.016-.434c-.028 0-.05.01-.068.028-.017.019-.028.046-.033.082h.196v-.012c-.001-.031-.009-.055-.025-.072-.017-.017-.04-.026-.07-.026z"
              transform="matrix(281.526875 0 0 281.526875 983.205 315.923)"/>
        <path d="m.263-.331-.087.091v.24h-.093v-.711h.093v.352l.316-.352h.113l-.279.314.301.397h-.112z"
              transform="matrix(281.526875 0 0 281.526875 1135.38 315.923)"/>
        <path d="m.154-.528.003.066c.04-.051.093-.076.158-.076.112 0 .168.063.169.189v.349h-.09v-.35c-.001-.038-.009-.066-.027-.084-.017-.018-.043-.027-.079-.027-.03 0-.055.007-.078.023-.022.016-.039.036-.051.062v.376h-.091v-.528z"
              transform="matrix(281.526875 0 0 281.526875 1308.72375 315.923)"/>
        <path d="m.044-.269c0-.052.011-.098.031-.14.02-.041.049-.073.085-.095.036-.023.078-.034.124-.034.072 0 .13.025.175.075.044.049.066.116.066.198v.007c0 .051-.009.097-.029.138s-.048.073-.085.096c-.036.022-.078.034-.126.034-.071 0-.129-.025-.174-.075-.044-.05-.067-.116-.067-.198zm.091.011c0 .058.014.105.041.141.027.035.064.053.109.053.046 0 .083-.018.11-.054s.04-.086.04-.151c0-.058-.014-.105-.041-.141-.028-.036-.064-.054-.11-.054-.044 0-.08.018-.108.053-.027.036-.041.087-.041.153z"
              transform="matrix(281.526875 0 0 281.526875 1464.055 315.923)"/>
        <path d="m.516-.258c0 .08-.019.145-.056.194-.037.049-.087.074-.149.074-.067 0-.119-.024-.155-.071l-.005.061h-.083v-.75h.091v.28c.036-.045.086-.068.151-.068.064 0 .114.024.151.073.036.048.055.115.055.199zm-.091-.011c0-.061-.012-.109-.035-.142-.024-.034-.058-.05-.103-.05-.059 0-.102.027-.128.083v.228c.027.055.07.083.129.083.043 0 .077-.017.101-.05.024-.034.036-.084.036-.152z"
              transform="matrix(281.526875 0 0 281.526875 1624.6175 315.923)"/>
    </g>
    <path d="m96.03 219.315c78.648-45.407 206.352-45.407 285 0 78.648 45.408 78.648 119.138 0 164.545-78.648 45.408-206.352 45.408-285 0-78.648-45.407-78.648-119.137 0-164.545z"
          fill="#fff" stroke="#000" stroke-width="13.19"/>
    <path d="m37.044 176.959h402.972v124.629h-402.972z" fill="#fff"/>
    <path d="m37.044 176.959v124.629" fill="none" stroke="#000" stroke-linecap="butt" stroke-width="13.19"/>
    <path d="m440.016 176.959v124.629" fill="none" stroke="#000" stroke-linecap="round" stroke-width="13.19"/>
    <path d="m96.03 91.14c78.648-45.408 206.352-45.408 285 0 78.648 45.407 78.648 119.137 0 164.545-78.648 45.407-206.352 45.407-285 0-78.648-45.408-78.648-119.138 0-164.545z"
          fill="#fff" stroke="#000" stroke-linecap="round" stroke-width="13.19"/>
    <path d="m190.506 145.685c-47.503-7.543-81.941 12.34-84.018 31.024-2.078 18.684 28.206 36.168 75.71 43.711 34.766 6.154 88.473 1.373 129.444-4.797 10.686-23.654 18.968-54.662 8.308-74.734-13.065-27.426-43.349-44.911-75.71-43.711-32.361 1.199-66.799 21.082-53.734 48.507z"
          fill="#dc0334"/>
    <path d="m190.506 145.685c-47.503-7.543-81.941 12.34-84.018 31.024-2.078 18.684 28.206 36.168 75.71 43.711 34.766 6.154 88.473 1.373 129.444-4.797 10.686-23.654 18.968-54.662 8.308-74.734-13.065-27.426-43.349-44.911-75.71-43.711-32.361 1.199-66.799 21.082-53.734 48.507zm-2.244 14.135c5.248.834 10.526-1.31 13.708-5.566 3.181-4.257 3.742-9.926 1.457-14.724-3.235-6.79.225-12.391 5.683-16.625 8.932-6.927 22.548-10.939 35.66-11.425 26.542-.984 51.544 13.07 62.259 35.564.09.188.183.373.281.557 3.086 5.811 3.657 12.939 3.123 20.434-.814 11.403-4.378 23.566-8.799 34.582-38.308 5.389-85.602 9.258-116.942 3.71-.083-.014-.166-.028-.25-.042-21.661-3.439-39.453-8.961-51.536-15.937-3.902-2.253-7.127-4.601-9.48-7.13-1.541-1.658-2.914-3.125-2.714-4.927 0 0 0 0 0-.001.446-4.007 4.643-7.271 9.979-10.502 12.768-7.731 33.191-11.839 57.571-7.968z"
          fill="#dc0334"/>
</svg>