<svg clip-rule="evenodd" fill-rule="evenodd" stroke-linecap="square" stroke-linejoin="round" stroke-miterlimit="1.5" viewBox="0 0 417 375" xmlns="http://www.w3.org/2000/svg" xmlns:xlink="http://www.w3.org/1999/xlink"><clipPath id="a"><path clip-rule="evenodd" d="m0 0h416.083v374.184h-416.083z"/></clipPath><g clip-path="url(#a)"><path d="m64.78 168.907c78.648-45.407 206.352-45.407 285 0 78.648 45.408 78.648 119.138 0 164.545-78.648 45.408-206.352 45.408-285 0-78.648-45.407-78.648-119.137 0-164.545z" fill="#fff" stroke="#000" stroke-width="13.19"/><path d="m5.794 126.551h402.972v124.629h-402.972z" fill="#fff"/><g stroke="#000" stroke-width="13.19"><path d="m5.794 126.551v124.629" fill="none" stroke-linecap="butt"/><path d="m408.766 126.551v124.629" fill="none" stroke-linecap="round"/><path d="m64.78 40.732c78.648-45.407 206.352-45.407 285 0s78.648 119.137 0 164.545c-78.648 45.407-206.352 45.407-285 0-78.648-45.408-78.648-119.138 0-164.545z" fill="#fff" stroke-linecap="round"/></g><path d="m159.256 95.278c-47.503-7.543-81.941 12.339-84.018 31.023-2.078 18.684 28.206 36.169 75.71 43.711 34.766 6.154 88.473 1.373 129.444-4.797 10.686-23.654 18.968-54.662 8.308-74.734-13.065-27.426-43.349-44.911-75.71-43.711-32.361 1.199-66.799 21.082-53.734 48.508z" fill="#dc0334"/><path d="m159.256 95.278c-47.503-7.543-81.941 12.339-84.018 31.023-2.078 18.684 28.206 36.169 75.71 43.711 34.766 6.154 88.473 1.373 129.444-4.797 10.686-23.654 18.968-54.662 8.308-74.734-13.065-27.426-43.349-44.911-75.71-43.711-32.361 1.199-66.799 21.082-53.734 48.508zm111.126 56.931c4.423-11.017 7.987-23.179 8.801-34.581.534-7.496-.037-14.624-3.123-20.435l-.281-.557c-10.715-22.494-35.717-36.548-62.259-35.564-13.112.486-26.728 4.498-35.66 11.425-5.458 4.234-8.918 9.835-5.683 16.626 2.285 4.797 1.724 10.466-1.457 14.723-3.182 4.257-8.46 6.4-13.708 5.566-24.38-3.871-44.803.237-57.571 7.968-5.336 3.231-9.533 6.495-9.979 10.503-.2 1.802 1.173 3.27 2.714 4.927 2.353 2.529 5.578 4.877 9.48 7.13 12.083 6.976 29.875 12.498 51.786 15.979 31.341 5.548 78.634 1.679 116.94-3.71z" fill="#dc0334"/></g></svg>