<?xml version="1.0" encoding="UTF-8" standalone="no"?>
<!DOCTYPE svg PUBLIC "-//W3C//DTD SVG 1.1//EN" "http://www.w3.org/Graphics/SVG/1.1/DTD/svg11.dtd">
<svg width="100%" height="100%" viewBox="0 0 481 284" version="1.1" xmlns="http://www.w3.org/2000/svg" xmlns:xlink="http://www.w3.org/1999/xlink" xml:space="preserve" xmlns:serif="http://www.serif.com/" style="fill-rule:evenodd;clip-rule:evenodd;stroke-linejoin:round;stroke-miterlimit:2;">
    <g transform="matrix(1,0,0,1,-15,-414)">
        <g transform="matrix(2.4294,0,0,2.4294,-3164.78,-631.596)">
            <g transform="matrix(1,0,0,1,2.09094,7.46764)">
                <path d="M1335.59,463.457C1332.93,464.211 1331.09,466.573 1330.04,469.808C1328.31,475.117 1328.64,482.882 1328.64,486.153C1328.64,496.349 1330.45,507.82 1335.44,517.175C1338.88,523.62 1343.83,529.07 1350.69,532.501C1351.71,533.009 1352.94,532.597 1353.45,531.581C1353.96,530.565 1353.55,529.328 1352.53,528.82C1346.46,525.784 1342.12,520.936 1339.07,515.237C1334.39,506.47 1332.76,495.707 1332.76,486.153C1332.76,483.52 1332.48,477.753 1333.44,473.044C1333.99,470.39 1334.73,467.979 1336.71,467.417C1337.81,467.108 1338.44,465.969 1338.13,464.876C1337.82,463.783 1336.68,463.147 1335.59,463.457Z"/>
            </g>
            <path d="M1317.94,471.089L1317.94,471.093C1317.94,471.093 1318.37,470.716 1318.77,470.372C1320.84,468.6 1325.77,464.436 1327.36,463.372C1331.68,460.494 1338.38,458.65 1343.05,456.123L1343.46,455.894C1343.57,456.37 1343.71,456.86 1343.86,457.351C1344.18,458.367 1344.58,459.389 1344.9,460.272C1345.57,462.122 1346.43,463.919 1347.4,465.668C1348.8,468.19 1350.42,470.612 1351.99,472.957C1352.62,473.902 1353.9,474.158 1354.84,473.528C1355.79,472.898 1356.04,471.619 1355.41,470.674C1353.91,468.42 1352.35,466.094 1351,463.67C1350.14,462.112 1349.36,460.513 1348.77,458.865L1347.37,454.451C1347.3,454.073 1347.58,452.89 1347.65,452.387C1347.68,452.139 1347.7,451.958 1347.7,451.877C1347.74,450.04 1346.12,449.77 1345.77,449.747C1345.34,449.718 1344.75,449.782 1344.18,450.347C1343.38,451.147 1342.31,451.844 1341.09,452.503C1336.32,455.084 1329.49,457.006 1325.08,459.947C1323.41,461.059 1318.26,465.394 1316.1,467.245C1315.67,467.608 1315.36,467.876 1315.21,468.005C1315.14,468.069 1315.1,468.112 1315.07,468.133C1314.96,468.237 1314.9,468.313 1314.88,468.346C1314.41,468.933 1314.43,469.441 1314.43,469.628C1314.42,470.345 1314.73,470.842 1315.15,471.2C1315.48,471.481 1316.04,471.837 1316.92,471.645C1317.32,471.558 1317.67,471.361 1317.94,471.089Z"/>
            <g transform="matrix(1,0,0,1,-0.370777,0.505612)">
                <path d="M1394.19,499.671C1394.71,502.291 1395.23,507.97 1395.63,509.41C1396.27,511.714 1398.73,518.084 1399.27,523.569C1399.57,526.555 1399.59,529.338 1397.41,530.257C1396.98,530.439 1396.62,529.972 1396.14,529.556C1395.08,528.648 1394.02,527.23 1392.99,525.631C1390.02,521.031 1387.43,514.954 1386.61,513.311C1386.24,512.58 1385.12,509.476 1383.9,507.986C1383.05,506.955 1382.05,506.498 1381.18,506.498C1380.39,506.498 1379.14,507.005 1378.83,508.777C1378.52,510.546 1379.11,515.468 1379.14,515.693C1379.68,519.867 1381.23,523.974 1382.12,528.121C1382.47,529.754 1382.71,531.394 1382.71,533.05L1382.71,534.078C1382.15,533.176 1381.68,532.305 1381.36,531.854C1379.15,528.754 1376.72,525.842 1374.5,522.763C1373.59,521.496 1372.71,520.2 1371.89,518.848L1369.47,514.487C1369.59,514.136 1369.61,513.749 1369.52,513.363C1369.31,512.479 1368.56,511.866 1367.7,511.793C1367.23,511.455 1366.48,510.979 1365.95,510.979C1364.96,510.979 1364.48,511.451 1364.21,511.772C1363.81,512.267 1363.61,512.886 1363.8,513.654C1363.87,513.909 1364.02,514.281 1364.36,514.662C1364.57,514.897 1365.26,515.522 1365.41,515.654L1368.37,520.966C1369.24,522.418 1370.18,523.811 1371.16,525.172C1373.38,528.245 1375.8,531.152 1378.01,534.246C1378.6,535.065 1379.66,537.215 1380.89,538.53C1381.89,539.6 1383.06,540.186 1384.17,540.186C1385.05,540.186 1385.88,539.78 1386.4,538.758C1387.04,537.504 1386.82,533.493 1386.82,533.05C1386.82,531.104 1386.55,529.177 1386.14,527.258C1385.34,523.514 1383.97,519.808 1383.36,516.049C1384.92,519.382 1388.85,528.038 1392.64,531.911C1394.8,534.124 1397.1,534.855 1399.01,534.05C1402.03,532.776 1403.4,529.756 1403.49,525.909C1403.63,519.68 1400.38,511.116 1399.59,508.3C1399.16,506.745 1398.6,500.199 1398.04,498.026C1397.57,496.162 1396.14,495.761 1395.67,495.77C1395.16,495.78 1394.07,495.942 1393.57,497.451C1393.29,498.272 1393.57,499.145 1394.19,499.671ZM1397.2,499.293C1397.31,499.15 1397.4,498.973 1397.47,498.752C1397.41,498.95 1397.31,499.131 1397.2,499.293Z"/>
            </g>
            <g transform="matrix(1,0,0,1,4.11625,-1.9494)">
                <path d="M1413.18,509.986C1412.09,511.652 1411.27,513.789 1410.92,516.035C1410.29,520.149 1411.26,524.382 1414.16,526.397C1415.88,527.592 1418.33,528.141 1421.72,527.278C1422.34,527.118 1422.92,526.824 1423.45,526.436C1424.26,525.854 1424.93,525.007 1425.58,524.417C1427.41,522.752 1429.38,520.635 1430.3,518.246C1431,516.399 1431.14,514.396 1430.29,512.272C1428.96,508.941 1426.13,506.629 1423.09,505.777C1419.64,504.814 1415.95,505.669 1413.59,508.815C1413.32,509.167 1413.19,509.577 1413.18,509.986ZM1423.78,510.555L1423.9,510.773C1424.47,511.761 1424.12,513.018 1423.13,513.579C1422.14,514.14 1420.89,513.794 1420.33,512.806C1419.54,511.417 1418.97,510.613 1418.21,510.694C1417.64,510.753 1417.21,511.28 1416.77,511.894C1415.47,513.712 1414.69,516.658 1414.86,519.243C1414.97,520.79 1415.38,522.238 1416.51,523.017C1417.46,523.677 1418.83,523.766 1420.7,523.289C1420.98,523.217 1421.2,522.989 1421.42,522.779C1421.92,522.306 1422.37,521.773 1422.81,521.371C1423.99,520.301 1425.28,519.025 1426.09,517.559C1426.71,516.426 1427.01,515.164 1426.47,513.801C1425.91,512.406 1424.93,511.294 1423.78,510.555Z"/>
            </g>
            <g transform="matrix(1,0,0,1,6.15067,-6.04664)">
                <path d="M1458.89,500.353C1459.79,501.642 1461.22,503.837 1462.01,505.695C1462.76,507.46 1463.46,509.113 1463.17,509.996C1462.67,511.467 1462.18,512.341 1461.4,512.556C1460.82,512.716 1460.19,512.467 1459.54,512.125C1457.39,510.997 1455.2,508.56 1453.65,506.455C1452.86,504.905 1452.18,503.728 1451.98,503.365L1450.57,500.556L1450,499.129C1449.94,498.976 1449.89,498.887 1449.87,498.846C1449.35,497.908 1448.61,497.839 1448.4,497.806C1447.48,497.653 1446.64,497.912 1446.16,499.047C1446.13,499.125 1445.87,499.636 1446.09,500.429C1446.15,500.628 1446.38,501.327 1446.5,501.601L1446.81,502.219L1448.04,505.295C1448.42,506.057 1449.18,507.274 1450.17,508.626C1450.52,509.316 1450.9,510.071 1451.25,510.85C1451.62,511.666 1451.98,512.509 1452.27,513.327C1452.48,513.91 1452.65,514.478 1452.77,515.013C1452.88,515.466 1452.9,516.08 1452.91,516.407C1451.05,516.571 1449.28,515.69 1447.61,514.493C1444.53,512.286 1441.82,508.935 1439.69,506.802C1438.95,506.059 1437.51,504.8 1436.44,504.267C1435.5,503.794 1434.64,503.78 1434.06,503.963C1433.17,504.248 1432.05,505.022 1432.38,507.192C1432.55,508.315 1433.6,509.09 1434.72,508.921C1435,508.879 1435.26,508.782 1435.49,508.641C1435.98,509.018 1436.52,509.453 1436.78,509.713C1439.45,512.383 1443.02,516.768 1447.01,518.985C1449.16,520.18 1451.43,520.783 1453.76,520.451C1456.09,520.118 1457.17,518.491 1457.06,515.931C1457.05,515.758 1457.03,515.579 1457.01,515.394C1458.16,516.095 1459.33,516.555 1460.41,516.677C1462.99,516.964 1465.57,515.805 1467.07,511.298C1467.45,510.167 1467.28,508.246 1466.57,506.097C1465.53,502.979 1463.47,499.228 1461.88,497.269C1460.76,495.894 1459.57,495.317 1458.89,495.276C1457.77,495.206 1456.19,495.727 1456.19,498.4C1456.19,499.536 1457.11,500.458 1458.25,500.458C1458.47,500.458 1458.69,500.422 1458.89,500.353Z"/>
            </g>
            <g transform="matrix(1,0,0,1,1.16191,-7.05076)">
                <path d="M1472.7,469.517C1472.74,469.065 1472.62,468.598 1472.35,468.194C1468.53,462.592 1465.46,463.568 1468.82,470.941C1470.55,474.745 1476.46,485.967 1477.15,486.996C1477.77,487.935 1478.88,489.205 1479.69,490.502C1480.04,491.07 1480.38,491.612 1480.38,492.127C1480.38,493.263 1481.31,494.186 1482.44,494.186C1483.58,494.186 1484.5,493.263 1484.5,492.127C1484.5,491.176 1484.18,490.125 1483.62,489.077C1482.77,487.491 1481.34,485.861 1480.57,484.713C1479.93,483.746 1474.51,473.426 1472.7,469.517Z"/>
            </g>
            <g transform="matrix(1,0,0,1,6.58599,-11.9482)">
                <path d="M1490.99,512.396L1491.24,512.421C1492.37,512.501 1493.36,511.646 1493.44,510.513C1493.52,509.38 1492.66,508.395 1491.53,508.315C1490.81,508.264 1489.56,508.262 1489,508.603C1488.32,509.015 1487.85,509.644 1487.85,510.647C1487.85,511.783 1488.78,512.705 1489.91,512.705C1490.31,512.705 1490.68,512.593 1490.99,512.396Z"/>
            </g>
        </g>
    </g>
</svg>
