<?xml version="1.0" encoding="UTF-8" standalone="no"?>
<!DOCTYPE svg PUBLIC "-//W3C//DTD SVG 1.1//EN" "http://www.w3.org/Graphics/SVG/1.1/DTD/svg11.dtd">
<svg width="100%" height="100%" viewBox="0 0 670 190" version="1.1" xmlns="http://www.w3.org/2000/svg" xmlns:xlink="http://www.w3.org/1999/xlink" xml:space="preserve" xmlns:serif="http://www.serif.com/" style="fill-rule:evenodd;clip-rule:evenodd;stroke-linejoin:round;stroke-miterlimit:2;">
    <g transform="matrix(1,0,0,1,-1196,-684)">
        <g transform="matrix(1,0,0,1,125.537,207.824)">
            <g transform="matrix(1,0,0,1,-18.6844,2.72902)">
                <path d="M1172.63,551.604C1171.88,548.426 1170.26,547.399 1169.94,547.144C1168.51,545.992 1163.89,545.738 1162.84,551.999C1162.74,552.606 1163.04,553.56 1162.66,554.733C1162.43,555.477 1161.93,555.549 1161.71,556.45C1161.54,557.199 1161.82,558.051 1161.9,558.954C1162.7,567.01 1164.83,579.923 1164.96,582.288L1174.87,634.496C1174.87,638.446 1178.08,641.653 1182.03,641.653C1185.98,641.653 1189.19,638.446 1189.19,634.496C1189.61,628.902 1189.51,623 1188.68,616.964C1187.01,604.616 1182.79,591.908 1181.37,580.32C1181.16,578.973 1180.29,574.411 1178.85,569.235C1177.36,563.876 1175.86,557.694 1174.19,554.067C1173.65,552.899 1173.18,551.718 1172.63,551.604Z"/>
                <path d="M1124.14,557.371L1124.15,557.362C1124.95,556.63 1126.1,555.985 1127.44,555.219C1131.58,552.85 1137.64,550.625 1144.31,548.26C1153.1,545.142 1163.04,542.351 1171.42,539.815C1179.28,537.438 1185.57,535.075 1188.48,534.885C1191.77,534.885 1194.44,532.212 1194.44,528.919C1194.44,525.626 1191.77,522.952 1188.48,522.952C1185.49,522.715 1179.17,523.171 1171.41,524.867C1168.18,525.572 1164.71,526.591 1161.15,527.755C1147.93,532.067 1133.2,538.3 1124.39,544.162C1112.77,551.891 1110.7,560.117 1119.11,564.008C1121.12,565.159 1123.69,564.463 1124.84,562.452C1125.81,560.76 1125.47,558.673 1124.14,557.371Z"/>
            </g>
            <g transform="matrix(1,0,0,1,-10.7588,0.081001)">
                <path d="M1194.05,557.502C1194.18,558.37 1194.28,559.249 1194.15,560.127C1193.98,561.348 1193.2,562.059 1192.94,563.291C1192.72,564.299 1192.77,565.33 1192.73,566.378C1192.46,574.42 1192.2,582.902 1192.53,591.178C1192.89,600.13 1194.3,608.771 1197.02,616.382L1200.48,621.685C1206,626.967 1214.27,626.509 1220.08,616.006C1222.56,611.518 1224.88,604.787 1226.86,598.244C1227.37,600.742 1227.94,603.116 1228.59,605.11C1229.96,609.252 1231.82,612.121 1233.12,613.23C1235.61,615.726 1239.67,615.726 1242.16,613.23C1244.53,610.866 1244.65,607.106 1242.54,604.596L1242.67,604.564C1242.89,604.467 1242.33,604.329 1242.19,604.198C1241.97,603.506 1242.02,602.052 1241.74,601.063C1239.64,593.87 1236.36,582.522 1234.52,577.246C1232.1,570.344 1226.35,570.206 1224.47,571.083C1223.94,571.328 1221.54,573.718 1219.73,578.452C1217.75,583.605 1214.01,597.532 1210.41,605.167C1209.19,600.397 1208.53,595.256 1207.95,590.011C1207.09,582.293 1206.57,574.369 1205.57,566.85C1205.38,565.386 1205.36,563.903 1204.87,562.545C1204.45,561.416 1203.67,560.865 1203.27,559.755C1202.7,558.195 1202.74,556.515 1202.42,554.945C1201.73,550.888 1198.19,549.542 1197.02,549.589C1194.98,549.672 1190.1,551.432 1193.46,556.722C1193.63,557.011 1193.83,557.273 1194.05,557.502ZM1208.53,608.534C1206.1,607.891 1203.7,608.105 1205.05,609.707C1206.09,610.944 1207.29,610.32 1208.53,608.534ZM1242.19,604.214C1242.26,604.463 1242.37,604.61 1242.54,604.596L1242.19,604.214L1242.19,604.198L1242.16,604.182L1242.19,604.214Z"/>
            </g>
            <path d="M1255.56,579.237C1256.51,578.558 1257.17,577.483 1257.3,576.228C1257.51,573.921 1255.82,571.871 1253.51,571.652C1251.84,571.493 1250.64,572.213 1249.41,572.485C1246.78,573.072 1246.21,574.343 1244.28,577.339C1243.36,578.778 1243.54,580.967 1243.62,583.362C1243.77,588.015 1245.46,594.158 1247.95,598.327C1249.78,601.387 1251.87,603.386 1253.31,604.318C1255.78,606.789 1259.79,606.789 1262.27,604.318C1264.74,601.847 1264.74,597.834 1262.27,595.363C1261.74,594.598 1261.93,592.839 1261.21,590.982C1260.16,588.281 1258.64,585.248 1257.7,582.499C1257.32,581.383 1255.66,579.885 1256.52,579.633C1256.89,579.525 1255.86,579.145 1255.56,579.237ZM1254.38,579.836C1254.24,579.871 1254.11,579.906 1253.98,579.941L1254.08,579.973C1254.34,579.938 1254.27,579.969 1254.57,579.854L1254.38,579.836ZM1255.47,579.308L1255.27,579.425C1255.4,579.457 1255.51,579.457 1255.48,579.332L1255.49,579.291L1255.47,579.308Z"/>
            <path d="M1252.15,551.232C1254.32,550.95 1256.28,549.532 1257.14,547.359C1258.42,544.156 1256.87,540.515 1253.66,539.233C1250.73,537.372 1247.75,537.068 1246.37,538.101C1245.66,538.635 1245.23,538.257 1245.07,539.035C1244.94,539.62 1244.19,539.242 1244.24,539.8C1244.44,541.76 1242.87,539.85 1243.43,541.594C1244.01,543.413 1241.33,544.029 1242.63,545.615C1242.95,546.011 1242.57,546.468 1242.96,546.885C1243.41,547.379 1243.36,548.056 1243.96,548.654C1244.7,549.402 1245.44,550.637 1247,551.536C1248.62,552.648 1250.74,552.473 1252.15,551.232ZM1249.77,551.083C1249.52,551.023 1249.27,550.94 1249.02,550.841C1249.3,551.025 1249.55,551.099 1249.77,551.083Z"/>
            <g transform="matrix(1,0,0,1,7.22084,-2.90619)">
                <path d="M1280.48,566.454C1281.52,564.441 1284.9,561.171 1286.83,559.391C1288.9,557.47 1290.4,555.162 1292.16,555.199C1294.44,555.626 1296.64,554.123 1297.06,551.845C1297.49,549.568 1295.99,547.372 1293.71,546.946C1290.03,545.633 1284.27,547.151 1278.86,550.438C1274.66,552.987 1271.12,556.954 1268.97,560.623C1264.82,567.707 1266.2,574.473 1272.6,578.645C1274.19,579.598 1276.22,580.315 1278.61,580.704C1283.26,581.459 1289.96,580.887 1295.98,581.089C1297.76,581.149 1299.47,581.259 1300.94,581.644C1301.55,581.802 1302.31,581.658 1302.41,582.298C1302.78,584.72 1300.28,585.617 1298.03,586.566C1293.7,588.393 1288.44,589.09 1285.19,589.126C1281.5,589.126 1278.5,592.121 1278.5,595.811C1278.5,599.501 1281.5,602.496 1285.19,602.496C1291.81,602.569 1304.08,600.499 1310.6,594.953C1314.84,591.345 1317.14,586.509 1316.33,580.31C1315.6,574.902 1312.64,571.472 1308.34,569.301C1303.89,567.059 1297.22,566.616 1290.67,566.673C1286.66,566.708 1282.73,567.421 1280.48,566.454ZM1280.44,566.548C1280.01,567.421 1280.06,568.039 1280.91,568.161C1281.58,568.255 1281.07,567.166 1280.44,566.548Z"/>
            </g>
            <path d="M1394.01,578.45C1395,578.398 1396.02,578.326 1396.54,579.518C1396.67,579.829 1397.75,580.18 1398.29,580.433C1398.2,580.639 1398.17,580.772 1398.33,580.756C1398.76,580.709 1398.63,580.59 1398.29,580.433C1398.4,580.116 1398.64,579.631 1398.54,579.236C1396.93,572.774 1392.77,558.007 1388.58,550.478C1387.65,548.793 1386.42,548.232 1385.67,547.324C1385.63,547.062 1385.57,546.799 1385.49,546.538C1382.31,537.14 1376.51,543.191 1376.45,546.496C1376.44,546.993 1376.66,547.875 1376.41,549.126C1376.17,550.361 1375.36,551.012 1375.16,552.78C1374.98,554.365 1375.49,556.174 1375.82,558.153C1377.44,567.663 1379.8,581.005 1383.01,585.973C1384.77,588.687 1386.03,590.085 1387.09,590.42C1389.87,591.3 1390.9,593.244 1392.38,592.415C1396.29,592.415 1399.46,589.242 1399.46,585.334C1399.46,581.988 1397.13,579.181 1394.01,578.45Z"/>
            <path d="M1376.53,527.54C1377.49,526.387 1378.08,524.899 1378.08,523.277C1378.08,519.606 1375.1,516.626 1371.42,516.626C1369.25,516.484 1367.62,516.802 1366.59,517.336C1365.51,517.889 1364.47,518.282 1364.1,519.118C1363.75,519.891 1362.89,520.06 1362.95,520.827C1363.13,522.905 1360.74,524.186 1362.52,525.563C1363.85,526.591 1362.83,527.744 1365.18,528.566C1365.76,528.767 1366.11,529.33 1366.77,529.742C1367.76,530.366 1368.86,531.331 1370.36,532.098C1372.37,533.243 1374.94,532.537 1376.08,530.522C1376.62,529.581 1376.75,528.52 1376.53,527.54ZM1373.06,522.856C1373.49,523.089 1373.72,524.187 1374.51,524.798L1374.55,524.827L1374.63,524.737C1375.23,524.122 1373.33,524.048 1373.85,523.18C1373.99,522.944 1373.44,522.879 1373.06,522.856Z"/>
            <g transform="matrix(1,0,0,1,5.96843,0.151145)">
                <path d="M1415.67,568.38L1410.11,569.051C1406.46,569.051 1403.5,572.014 1403.5,575.663C1403.5,579.312 1406.46,582.274 1410.11,582.274L1426.64,580.75C1438.52,578.751 1442.01,573.519 1442.48,570.802C1442.91,568.339 1442.27,565.544 1439.78,562.852C1436.8,559.63 1427.81,555.595 1419.55,551.523C1417.13,550.329 1413.61,548.962 1411.48,547.771C1413.6,547.294 1415.62,546.758 1417.8,546.506C1419.41,546.32 1421.02,546.332 1422.65,546.381C1424.96,546.653 1427.05,545.005 1427.32,542.704C1427.59,540.403 1425.94,538.314 1423.64,538.042L1410.11,535.552C1408.52,535.271 1407,535.579 1405.43,535.846C1403.87,536.114 1402.5,536.957 1401.04,537.779C1396.87,540.247 1395.63,543.608 1395.2,546.435C1394.61,550.356 1396.78,554.962 1401.82,558.718C1405.18,561.229 1410.51,565.217 1415.67,568.38ZM1410.26,548.042L1410.11,548.075L1409.51,549.072C1409.82,548.789 1410.07,548.427 1410.26,548.042ZM1410.57,547.21C1410.86,546.14 1410.68,545.204 1410.02,545.597C1409.32,546.016 1409.65,546.577 1410.57,547.21Z"/>
            </g>
            <path d="M1496.21,554.651C1497.15,554.581 1498.14,554.459 1498.71,555.526C1498.85,555.803 1499.75,555.95 1500.23,556.087C1500.22,556.27 1500.23,556.399 1500.34,556.362C1500.67,556.254 1500.53,556.172 1500.23,556.087C1500.23,555.884 1500.25,555.614 1500.16,555.431C1497.82,550.61 1493.58,540.484 1490.22,534.401C1488.8,531.831 1487.08,530.755 1486.78,530.047C1486.65,527.733 1484.67,525.956 1482.36,526.081C1480.05,526.206 1478.27,528.186 1478.39,530.5C1478.09,531.451 1477.66,533.707 1477.86,537.367C1478.21,543.725 1480.88,553.416 1483.42,559.618C1484.6,562.493 1485.83,564.844 1487.05,565.834C1490.91,568.949 1493.04,570.322 1494.73,569.421C1498.85,569.421 1502.19,566.079 1502.19,561.962C1502.19,558.352 1499.62,555.338 1496.21,554.651Z"/>
            <path d="M1474.36,511.392L1473.93,511.036L1474.4,511.459C1474.65,511.881 1474.92,512.309 1475.27,512.695C1476.64,514.564 1479.27,514.968 1481.13,513.597C1481.83,513.084 1482.33,512.394 1482.6,511.633C1482.85,511.457 1483.08,511.256 1483.3,511.036C1485.88,508.451 1485.88,504.254 1483.3,501.669C1476.97,495.821 1471.78,499.64 1471.28,501.894C1470.89,503.591 1469.36,506.253 1473.26,509.863C1473.69,510.261 1474.01,510.817 1474.36,511.392ZM1482.53,505.388C1482.39,505.431 1481.41,505.194 1481.39,505.706C1481.36,506.31 1481.66,507.023 1482.04,507.729C1482.14,507.873 1482.24,508.021 1482.32,508.175C1482.46,507.972 1482.63,507.783 1482.84,507.613C1483.32,507.225 1482.33,506.619 1482.9,506.069C1483.06,505.918 1482.72,505.567 1482.53,505.388Z"/>
            <g transform="matrix(1,0,0,1,4.9981,0)">
                <path d="M1502.38,498.586C1502.62,501.393 1502.7,504.7 1503.1,508.287C1504.4,519.987 1506.38,534.279 1509.47,544.354C1510.27,546.963 1511.07,549.349 1512.24,551.246C1514.34,554.662 1516.25,557.046 1518.53,558.316C1520.96,560.752 1524.92,560.752 1527.35,558.316C1529.79,555.88 1529.79,551.925 1527.35,549.489C1527.14,548.989 1527.87,548.49 1527.71,547.812C1527.35,546.278 1527.31,544.44 1526.88,542.317C1524.7,531.55 1523.06,515.04 1520.1,502.76C1518.75,497.168 1516.87,492.566 1515.11,489.278C1510.42,481.631 1504.61,480.214 1500.89,482.401C1497.11,484.618 1492.48,490.146 1498.3,496.569C1499.17,498.029 1500.79,498.768 1502.38,498.586ZM1505.49,492.017C1506.24,491.442 1506.98,490.976 1506.17,490.897C1505.77,490.858 1505.48,491.445 1505.49,492.017Z"/>
                <path d="M1510.91,533.287C1512.14,533.602 1513.69,534.058 1515.02,534.053C1520,534.033 1526.27,533.816 1531.89,532.96C1536.87,532.2 1541.22,530.669 1544.08,529.49C1548.4,528.051 1550.74,523.376 1549.3,519.057C1547.86,514.738 1543.19,512.4 1538.87,513.84C1536.92,514.295 1534.12,514.245 1531.02,514.724C1528.22,515.157 1525.23,515.877 1522.28,516.599C1519.07,517.381 1515.95,518.143 1513.26,519.197C1508.28,521.145 1504.78,523.067 1503.24,524.65C1500.3,527.673 1499.26,529.912 1500.78,532.06C1501.44,533.003 1502.39,534.888 1505.41,535.515C1507.55,536.416 1510.01,535.418 1510.91,533.287ZM1508.81,533.148C1508.73,533.231 1508.7,533.357 1508.72,533.532C1508.76,533.761 1508.77,533.452 1508.81,533.148Z"/>
            </g>
            <path d="M1605.76,515.974C1610.02,517.257 1620.74,512.208 1622.75,511.758C1629.93,510.082 1640.02,508.962 1649.43,509.568C1655.39,509.952 1661.09,510.986 1665.41,513.368C1673.91,518.019 1678.02,524.994 1679.48,532.851C1681.92,545.978 1677.53,561.306 1673.1,573.516C1672.29,575.794 1667.8,589.587 1666.53,595.38C1666.48,595.625 1666.46,595.878 1666.46,596.118C1665.42,596.619 1664.95,597.105 1666.32,597.311L1666.4,597.285L1666.46,597.154L1666.47,596.711L1666.46,596.118L1666.59,596.05C1666.77,595.975 1666.94,595.901 1667.11,595.826L1667.84,595.545C1667.27,595.965 1666.79,596.516 1666.46,597.154C1666.45,597.216 1666.43,597.261 1666.4,597.285C1666.1,597.896 1665.93,598.583 1665.93,599.309C1665.93,601.894 1668.03,603.992 1670.62,603.992C1670.82,604.031 1674.43,603.057 1676.38,598.514C1678.68,593.171 1682.24,579.364 1683.06,577.138C1688.11,563.278 1692.73,545.809 1689.96,530.9C1687.94,520.06 1682.24,510.453 1670.5,504.052C1664.93,501.038 1657.66,499.462 1650,499.119C1639.52,498.651 1628.34,500.354 1620.43,502.465C1618.3,503.053 1608.84,504.165 1603.42,505.803C1599.87,506.877 1597.63,508.661 1596.99,510.003C1596.1,511.891 1596.27,513.956 1597.25,515.499C1598.38,517.293 1600.38,518.45 1602.65,518.1C1604.02,517.918 1605.14,517.097 1605.76,515.974Z"/>
            <path d="M1632.1,570.337C1627.91,568.111 1628.16,573.907 1638.93,591.111L1639.01,591.269C1639.29,591.855 1640.33,593.893 1640.79,594.702L1648.48,606.973C1651.34,611.14 1655.57,624.311 1659.22,632.082C1661.2,636.291 1663.42,639.161 1664.89,640.146C1666.44,641.188 1669.07,641.859 1672.1,639.95C1674.6,638.374 1679.41,632.189 1680.4,631.43C1683.37,629.157 1686.1,626.719 1688.72,624.184C1694.47,618.625 1699.64,612.6 1705.73,607.168C1706.56,606.4 1715.68,597.452 1718.55,593.52C1720.19,591.278 1720.58,589.392 1720.52,588.743C1720.24,585.598 1719.03,583.347 1715.38,583.66C1713.28,583.66 1711.48,584.965 1710.75,586.809L1710.56,586.993C1707.58,590.273 1699.17,598.243 1698.39,598.911L1673.62,622.612C1673.13,622.992 1671.41,625.976 1669.71,628.268L1656.51,601.237L1648.22,590.059C1647.76,589.39 1646.69,587.696 1646.39,587.208L1646.32,587.091C1636.92,568.745 1632.23,565.474 1632.1,570.337ZM1668.35,629.918C1666.83,629.5 1665.41,629.421 1666.17,630.609C1666.62,631.322 1667.43,630.882 1668.35,629.918ZM1710.5,589.658C1710.6,591.642 1711.71,592.862 1713.82,593.384C1712.14,592.832 1710.86,591.413 1710.5,589.658Z"/>
        </g>
    </g>
</svg>
