<svg clip-rule="evenodd" fill-rule="evenodd" stroke-linecap="round" stroke-linejoin="round" stroke-miterlimit="1.5" viewBox="0 0 1500 1500" xmlns="http://www.w3.org/2000/svg">
    <path d="m741.23 78.07c1.197-3.838 4.75-6.451 8.77-6.451s7.573 2.613 8.77 6.451l159.615 511.786 536.062-6.347c4.02-.048 7.603 2.524 8.845 6.347 1.243 3.823-.145 8.01-3.425 10.334l-437.414 309.954 171.689 507.864c1.287 3.808-.051 8.011-3.303 10.373-3.252 2.363-7.663 2.337-10.887-.064l-429.952-320.224-429.952 320.224c-3.224 2.401-7.635 2.427-10.887.064-3.252-2.362-4.59-6.565-3.303-10.373l171.689-507.864-437.414-309.954c-3.28-2.324-4.668-6.511-3.425-10.334 1.242-3.823 4.825-6.395 8.845-6.347l536.062 6.347 159.615-511.786z" fill="#ffd23f" stroke="#6e6e6e" stroke-width="62.5"></path></svg>